<svg xmlns="http://www.w3.org/2000/svg" xmlns:xlink="http://www.w3.org/1999/xlink" version="1.1" x="0px" y="0px" viewBox="0 0 52 65" style="enable-background:new 0 0 52 52;" xml:space="preserve"><style type="text/css">
	.st0{fill:none;stroke:#000000;stroke-width:2;stroke-miterlimit:10;}
	.st1{fill:none;stroke:#000000;stroke-width:2;stroke-linecap:round;stroke-linejoin:round;stroke-miterlimit:10;}
</style><g><g><path d="M40.9998894,50h-30c-1.6542969,0-3.0000005-1.3457031-3.0000005-3V5c0-1.6542969,1.3457036-3,3.0000005-3h24.1396484    c0.265625,0,0.5195313,0.1054688,0.7070313,0.2929688l7.8603516,7.8603516c0.1875,0.1875,0.2929688,0.4414063,0.2929688,0.7070313    V47C43.9998894,48.6542969,42.6541862,50,40.9998894,50z M10.9998903,4c-0.5517578,0-1,0.4482422-1,1v42    c0,0.5517578,0.4482422,1,1,1h30c0.5517578,0,1-0.4482422,1-1V11.2744141L34.7254753,4H10.9998903z"/></g><g><path d="M42.9998894,11.8603516h-7.8603516c-0.5527344,0-1-0.4472656-1-1V3c0-0.4042969,0.2431641-0.7695313,0.6171875-0.9238281    c0.375-0.1542969,0.8046875-0.0693359,1.0898438,0.2167969l7.8603516,7.8603516    c0.2861328,0.2861328,0.3720703,0.7158203,0.2167969,1.0898438    C43.7694206,11.6171875,43.4041862,11.8603516,42.9998894,11.8603516z M36.1395378,9.8603516h4.4462891l-4.4462891-4.4462891    V9.8603516z"/></g><g><path d="M25.9998894,43.2128906c-5.6699219,0-10.2822256-4.6132813-10.2822256-10.2832031    s4.6123037-10.2822266,10.2822256-10.2822266s10.2832031,4.6123047,10.2832031,10.2822266    S31.6698112,43.2128906,25.9998894,43.2128906z M25.9998894,24.6474609c-4.5664063,0-8.2822266,3.7158203-8.2822266,8.2822266    c0,4.5673828,3.7158203,8.2832031,8.2822266,8.2832031c4.5673828,0,8.2832031-3.7158203,8.2832031-8.2832031    C34.2830925,28.3632813,30.5672722,24.6474609,25.9998894,24.6474609z"/></g><g><g><path d="M25.7115612,38.3778152v-0.9594688c-1.2012043-0.1224709-2.2794018-0.6000671-3.2335186-1.4322433l0.959465-1.1434479     c0.7359123,0.6396446,1.4932175,1.0204391,2.2740536,1.1434479v-2.5500221     c-0.9904861-0.2363892-1.7157001-0.5476532-2.1756458-0.9332581c-0.4599457-0.3856087-0.6899166-0.9573288-0.6899166-1.715168     s0.2642002-1.3776951,0.7947407-1.8601036c0.5305424-0.4818726,1.220459-0.7444687,2.0708218-0.7883244v-0.6572933h0.8407364     v0.6701298c0.9637451,0.0705967,1.8750782,0.3989754,2.7339993,0.986208l-0.8546429,1.2092266     c-0.5786743-0.4118118-1.2044144-0.6658497-1.8793564-0.7626534v2.4708691h0.0395775     c1.0076008,0.2369232,1.7477894,0.5567436,2.2205715,0.959465c0.4738503,0.4032516,0.7102394,0.9883461,0.7102394,1.7547417     c0,0.7669334-0.2716885,1.3916016-0.8150654,1.8729401c-0.5433769,0.4824066-1.2611046,0.7450027-2.155323,0.7888565v0.9460983     H25.7115612z M24.7841835,29.8939705c-0.2235546,0.1968136-0.3347969,0.442297-0.3347969,0.7359123     s0.0877113,0.5257282,0.2631321,0.6963348c0.1743507,0.1711426,0.5080776,0.3353329,0.9990425,0.493103V29.545269     C25.316864,29.5805664,25.0077381,29.6966228,24.7841835,29.8939705z M27.551342,35.6571884     c0.2449474-0.2010918,0.3679543-0.4551315,0.3679543-0.7621193c0-0.3064499-0.0962658-0.5497932-0.2888012-0.7294922     c-0.1936054-0.1797028-0.5530033-0.3481674-1.0781975-0.5059395v2.3655052     C26.9726658,35.981823,27.3053246,35.8588142,27.551342,35.6571884z"/></g></g><g><path d="M30.1786003,11.8603516H13.9618044c-0.5527344,0-1-0.4472656-1-1s0.4472656-1,1-1h16.2167969c0.5527344,0,1,0.4472656,1,1    S30.7313347,11.8603516,30.1786003,11.8603516z"/></g><g><path d="M38.1786003,17.8603516H13.9618044c-0.5527344,0-1-0.4472656-1-1s0.4472656-1,1-1h24.2167969c0.5527344,0,1,0.4472656,1,1    S38.7313347,17.8603516,38.1786003,17.8603516z"/></g></g><text x="0" y="67" fill="#000000" font-size="5px" font-weight="bold" font-family="'Helvetica Neue', Helvetica, Arial-Unicode, Arial, Sans-serif">Created by Dinosoft Labs</text><text x="0" y="72" fill="#000000" font-size="5px" font-weight="bold" font-family="'Helvetica Neue', Helvetica, Arial-Unicode, Arial, Sans-serif">from the Noun Project</text></svg>