<svg xmlns="http://www.w3.org/2000/svg" data-name="Layer 1" viewBox="0 0 100 125" x="0px" y="0px"><title>hands</title><path d="M68.6,26.7a12.61,12.61,0,0,0-17.8,0l-0.8.7-0.7-.7A12.59,12.59,0,0,0,31.5,44.5l0.7,0.7S45,55.8,50,62.6c5.1-6.8,17.8-17.4,17.8-17.4l0.7-.7A12.52,12.52,0,0,0,68.6,26.7Z"/><path d="M27.62,71.48A4.73,4.73,0,0,1,29,74.82v9.11H45L45,64a4.73,4.73,0,0,0-1.38-3.33L26.52,46.22a4.73,4.73,0,0,1-.38-0.44l-0.22-.23a3.76,3.76,0,1,0-5.32,5.32L31.94,62.23h0a0.78,0.78,0,1,1-1.11,1.11h0L19.48,52a5.33,5.33,0,0,1,5.67-8.74c0-.12,0-0.24,0-0.37V28a4.73,4.73,0,0,0-9.45,0l-1,26.42a4.73,4.73,0,0,0,1.38,3.34Z"/><path d="M71,83.93V74.82a4.73,4.73,0,0,1,1.38-3.34L83.91,57.74a4.73,4.73,0,0,0,1.38-3.34L84.32,28a4.73,4.73,0,0,0-9.45,0v14.9c0,0.12,0,.25,0,0.37a5.34,5.34,0,0,1,1.9-.35A5.32,5.32,0,0,1,80.52,52L69.19,63.32h0a0.78,0.78,0,1,1-1.11-1.11h0L79.41,50.88a3.76,3.76,0,0,0-5.32-5.32l-0.22.23a4.73,4.73,0,0,1-.38.44L56.37,60.68A4.73,4.73,0,0,0,55,64l0,19.92H71Z"/></svg>
